<svg width="79" height="79" viewBox="0 0 79 79" fill="none" xmlns="http://www.w3.org/2000/svg">
<path d="M33.6667 66.9999C41.0624 66.9984 48.2451 64.5226 54.0709 59.9666L72.3875 78.2833L78.2792 72.3916L59.9625 54.0749C64.5209 48.2485 66.9983 41.0642 67 33.6666C67 15.2874 52.0459 0.333252 33.6667 0.333252C15.2875 0.333252 0.333374 15.2874 0.333374 33.6666C0.333374 52.0458 15.2875 66.9999 33.6667 66.9999ZM33.6667 8.66659C47.4542 8.66659 58.6667 19.8791 58.6667 33.6666C58.6667 47.4541 47.4542 58.6666 33.6667 58.6666C19.8792 58.6666 8.66671 47.4541 8.66671 33.6666C8.66671 19.8791 19.8792 8.66659 33.6667 8.66659Z" fill="#171717"/>
</svg>
