<svg width="99" height="99" viewBox="0 0 99 99" fill="none" xmlns="http://www.w3.org/2000/svg">
<g clip-path="url(#clip0_128_136)">
<path d="M84.92 17.048C80.4667 12.5849 75.1755 9.04566 69.3504 6.6335C63.5252 4.22134 57.2809 2.98381 50.976 2.99198C24.464 2.99198 2.97205 24.484 2.97205 50.996C2.97205 64.252 8.34805 76.256 17.036 84.944C21.4894 89.407 26.7806 92.9463 32.6057 95.3585C38.4309 97.7706 44.6752 99.0082 50.98 99C77.492 99 98.984 77.508 98.984 50.996C98.984 37.74 93.608 25.736 84.92 17.048V17.048ZM78.752 78.756C75.1089 82.4084 70.78 85.305 66.014 87.2792C61.248 89.2535 56.1388 90.2665 50.98 90.26C29.288 90.26 11.704 72.676 11.704 50.984C11.6976 45.8252 12.7106 40.7161 14.6848 35.9501C16.659 31.184 19.5556 26.8551 23.208 23.212C26.8503 19.5595 31.1785 16.6628 35.9439 14.6886C40.7093 12.7143 45.8179 11.7014 50.976 11.708C72.664 11.708 90.248 29.292 90.248 50.98C90.2549 56.1382 89.242 61.2468 87.2677 66.0123C85.2935 70.7777 82.3967 75.1059 78.744 78.748L78.752 78.756Z" fill="white"/>
<path d="M57.148 51L72.568 35.58C73.3286 34.7509 73.7396 33.66 73.7152 32.5352C73.6909 31.4103 73.2329 30.3383 72.4371 29.5429C71.6412 28.7476 70.5689 28.2904 69.444 28.2667C68.3191 28.2431 67.2286 28.6548 66.4 29.416L66.404 29.412L50.984 44.832L35.564 29.412C34.7349 28.6513 33.644 28.2403 32.5192 28.2647C31.3943 28.2891 30.3223 28.747 29.5269 29.5429C28.7316 30.3387 28.2744 31.411 28.2507 32.5359C28.2271 33.6608 28.6388 34.7514 29.4 35.58L29.396 35.576L44.816 50.996L29.396 66.416C28.9621 66.814 28.6133 67.2957 28.3705 67.8321C28.1277 68.3685 27.996 68.9484 27.9832 69.5371C27.9704 70.1257 28.0769 70.7108 28.2962 71.2572C28.5156 71.8036 28.8432 72.3 29.2594 72.7165C29.6756 73.1329 30.1717 73.4609 30.718 73.6806C31.2642 73.9002 31.8493 74.0071 32.4379 73.9947C33.0266 73.9823 33.6066 73.851 34.1432 73.6085C34.6797 73.3661 35.1617 73.0176 35.56 72.584L35.564 72.58L50.984 57.16L66.404 72.58C66.802 73.0138 67.2837 73.3626 67.8201 73.6054C68.3565 73.8482 68.9364 73.98 69.5251 73.9927C70.1137 74.0055 70.6989 73.899 71.2453 73.6797C71.7917 73.4604 72.288 73.1328 72.7045 72.7166C73.121 72.3004 73.4489 71.8042 73.6686 71.258C73.8882 70.7117 73.9951 70.1266 73.9827 69.538C73.9703 68.9493 73.839 68.3693 73.5965 67.8328C73.3541 67.2962 73.0056 66.8143 72.572 66.416L72.568 66.412L57.148 51Z" fill="white"/>
</g>
<defs>
<clipPath id="clip0_128_136">
<rect width="100" height="100" fill="white" transform="translate(-1 -1)"/>
</clipPath>
</defs>
</svg>
