<svg width="96" height="96" viewBox="0 0 96 96" fill="none" xmlns="http://www.w3.org/2000/svg">
<g clip-path="url(#clip0_114_149)">
<path d="M-1.83325 89.4111C-1.83325 94.0418 1.90608 97.8334 6.56489 97.8334H6.87114H7.17683H7.48195H7.7865H8.09049H8.39391H8.69677H8.99906H9.30079H9.60196H9.90255H10.2026H10.5021H10.801H11.0993H11.3971H11.6943H11.9909H12.287H12.5825H12.8774H13.1718H13.4656H13.7589H14.0516H14.3437H14.6353H14.9263H15.2167H15.5065H15.7958H16.0846H16.3727H16.6603H16.9474H17.2338H17.5197H17.8051H18.0898H18.3741H18.6577H18.9408H19.2233H19.5052H19.7866H20.0674H20.3477H20.6274H20.9065H21.1851H21.4631H21.7405H22.0173H22.2936H22.5694H22.8445H23.1191H23.3932H23.6667H23.9396H24.2119H24.4837H24.7549H25.0255H25.2956H25.5651H25.8341H26.1025H26.3703H26.6375H26.9042H27.1704H27.4359H27.7009H27.9653H28.2292H28.4925H28.7552H29.0174H29.279H29.54H29.8005H30.0604H30.3198H30.5785H30.8368H31.0944H31.3515H31.608H31.864H32.1193H32.3742H32.6284H32.8821H33.1352H33.3878H33.6398H33.8912H34.1421H34.3924H34.6421H34.8913H35.1399H35.3879H35.6354H35.8823H36.1287H36.3745H36.6197H36.8643H37.1084H37.3519H37.5949H37.8373H38.0791H38.3203H38.561H38.8012H39.0407H39.2797H39.5182H39.756H39.9933H40.2301H40.4662H40.7018H40.9369H41.1714H41.4053H41.6386H41.8714H42.1036H42.3353H42.5664H42.7969H43.0268H43.2562H43.485H43.7133H43.941H44.1681H44.3947H44.6207H44.8461H45.071H45.2953H45.519H45.7422H45.9648H46.1869H46.4083H46.6293H46.8496H47.0694H47.2886H47.5073H47.7254H47.9429H48.1598H48.3762H48.5921H48.8073H49.022H49.2361H49.4497H49.6627H49.8751H50.087H50.2983H50.5091H50.7192H50.9289H51.1379H51.3464H51.5543H51.7616H51.9684H52.1746H52.3803H52.5854H52.7899H52.9939H53.1973H53.4001H53.6024H53.8041H54.0052H54.2058H54.4058H54.6052H54.8041H55.0024H55.2001H55.3973H55.5939H55.79H55.9854H56.1804H56.3747H56.5685H56.7617H56.9544H57.1465H57.338H57.529H57.7194H57.9092H58.0985H58.2872H58.4753H58.6629H58.8499H59.0363H59.2222H59.4075H59.5922H59.7764H59.96H60.1431H60.3256H60.5075H60.6888H60.8696H61.0498H61.2295H61.4086H61.5871H61.7651H61.9425H62.1193H62.2956H62.4713H62.6464H62.821H62.995H63.1684H63.3413H63.5136H63.6854H63.8566H64.0272H64.1972H64.3667H64.5356H64.704H64.8718H65.039H65.2057H65.3718H65.5373H65.7023H65.8666H66.0305H66.1938H66.3565H66.5186H66.6802H66.8412H67.0016H67.1615H67.3208H67.4796H67.6377H67.7954H67.9524H68.1089H68.2648H68.4202H68.575H68.7292H68.8829H69.036H69.1885H69.3405H69.4919H69.6427H69.793H69.9427H70.0918H70.2404H70.3884H70.5358H70.6827H70.829H70.9748H71.12H71.2646H71.4087H71.5521H71.6951H71.8374H71.9792H72.1204H72.2611H72.4012H72.5407H72.6797H72.8181H72.9559H73.0932H73.2299H73.3661H73.5016H73.6367H73.7711H73.905H74.0383H74.1711H74.3032H74.4349H74.5659H74.6964H74.8263H74.9557H75.0845H75.2127H75.3404H75.4675H75.594H75.72H75.8454H75.9702H76.0945H76.2182H76.3414H76.464H76.586H76.7074H76.8283H76.9486H77.0684H77.1876H77.3062H77.4242H77.5417H77.6587H77.775H77.8908H78.0061H78.1207H78.2348H78.3484H78.4613H78.5737H78.6856H78.7969H78.9076H79.0177H79.1273H79.2363H79.3448H79.4526H79.56H79.6667H79.7729H79.8785H79.9836H80.0881H80.192H80.2954H80.3982H80.5004H80.6021H80.7032H80.8037H80.9037H81.0031H81.102H81.2002H81.2979H81.3951H81.4917H81.5877H81.6831H81.778H81.8724H81.9661H82.0593H82.1519H82.244H82.3355H82.4264H82.5168H82.6066H82.6958H82.7845H82.8726H82.9601H83.0471H83.1335H83.2194H83.3046H83.3894H83.4735H83.5571H83.6401H83.7226H83.8045H83.8858H83.9665H84.0467H84.1264H84.2054H84.2839H84.3619H84.4392H84.516H84.5923H84.6679H84.743H84.8176H84.8916H84.965H85.0378H85.1101H85.1818H85.253H85.3236H85.3936H85.463H85.5319H85.6002H85.668H85.7352H85.8018H85.8679H85.9334H85.9983H86.0627H86.1265H86.1897H86.2524H86.3145H86.3761H86.437H86.4975H86.5573H86.6166H86.6753H86.7335H86.7911H86.8481H86.9045H86.9604H87.0158H87.0705H87.1247H87.1783H87.2314H87.2839H87.3359H87.3872H87.438H87.4883H87.5379H87.5871H87.6356H87.6836H87.731H87.7778H87.8241H87.8699H87.915H87.9596H88.0036H88.0471H88.09H88.1323H88.1741H88.2153H88.2559H88.296H88.3355H88.3744H88.4128H88.4506H88.4878H88.5245H88.5606H88.5962H88.6311H88.6656H88.6994H88.7327H88.7654H88.7976H88.8292H88.8602H88.8907H88.9206H88.9499H88.9787H89.0069H89.0345H89.0616H89.0881H89.114H89.1394H89.1642H89.1884H89.2121H89.2352H89.2578H89.2798H89.3012H89.322H89.3423H89.362H89.3812H89.3998H89.4178H89.4353C94.094 97.8334 97.8334 94.0418 97.8334 89.4111V6.58912C97.8334 1.95829 94.0941 -1.83325 89.4353 -1.83325H6.56489C1.90605 -1.83325 -1.83325 1.9583 -1.83325 6.58912V89.4111Z" stroke="#d0c5b6" stroke-width="8" stroke-linecap="round" stroke-linejoin="round"/>
<path fill-rule="evenodd" clip-rule="evenodd" d="M78.5452 35.2644H69.4741H68.4025C65.5898 35.2644 63.3098 37.5446 63.3098 40.3571V50.5452H78.5452L76.3139 65.8177H63.3098V93.8333H46.5556V65.8177H32.7229V50.5452H46.3769L46.5556 36.0485L46.5058 30.8529C46.4354 23.516 52.3258 17.5113 59.6627 17.4408C59.7052 17.4404 59.7477 17.4402 59.7902 17.4402H78.5452V35.2644Z" fill="#d0c5b6"/>
</g>
<rect x="4" y="4" width="88" height="88" rx="11" stroke="#d0c5b6" stroke-width="8"/>
<defs>
<clipPath id="clip0_114_149">
<rect width="96" height="96" rx="15" fill="transparent"/>
</clipPath>
</defs>
</svg>
