<svg role="img" aria-labelledby="icontitle icondesc" width="96" height="96" viewBox="0 0 96 96" fill="none" xmlns="http://www.w3.org/2000/svg">
<path fill-rule="evenodd" clip-rule="evenodd" d="M47.9999 26.3333C42.2536 26.3333 36.7426 28.616 32.6793 32.6793C28.616 36.7426 26.3333 42.2536 26.3333 47.9999C26.3333 53.7463 28.616 59.2573 32.6793 63.3206C36.7426 67.3839 42.2536 69.6666 47.9999 69.6666C53.7463 69.6666 59.2573 67.3839 63.3206 63.3206C67.3839 59.2573 69.6666 53.7463 69.6666 47.9999C69.6666 42.2536 67.3839 36.7426 63.3206 32.6793C59.2573 28.616 53.7463 26.3333 47.9999 26.3333V26.3333ZM34.9999 47.9999C34.9999 51.4477 36.3696 54.7543 38.8075 57.1923C41.2455 59.6303 44.5521 60.9999 47.9999 60.9999C51.4477 60.9999 54.7543 59.6303 57.1923 57.1923C59.6303 54.7543 60.9999 51.4477 60.9999 47.9999C60.9999 44.5521 59.6303 41.2455 57.1923 38.8075C54.7543 36.3696 51.4477 34.9999 47.9999 34.9999C44.5521 34.9999 41.2455 36.3696 38.8075 38.8075C36.3696 41.2455 34.9999 44.5521 34.9999 47.9999Z" fill="#d0c5b6"/>
<path d="M73.9998 17.6665C72.8506 17.6665 71.7484 18.1231 70.9357 18.9357C70.123 19.7484 69.6665 20.8506 69.6665 21.9998C69.6665 23.1491 70.123 24.2513 70.9357 25.064C71.7484 25.8766 72.8506 26.3332 73.9998 26.3332C75.1491 26.3332 76.2513 25.8766 77.064 25.064C77.8766 24.2513 78.3332 23.1491 78.3332 21.9998C78.3332 20.8506 77.8766 19.7484 77.064 18.9357C76.2513 18.1231 75.1491 17.6665 73.9998 17.6665Z" fill="#d0c5b6"/>
<path fill-rule="evenodd" clip-rule="evenodd" d="M17.6666 0.333252C13.0695 0.333252 8.6607 2.15944 5.41007 5.41007C2.15944 8.6607 0.333252 13.0695 0.333252 17.6666V78.3332C0.333252 82.9303 2.15944 87.3391 5.41007 90.5898C8.6607 93.8404 13.0695 95.6666 17.6666 95.6666H78.3332C82.9303 95.6666 87.3391 93.8404 90.5898 90.5898C93.8404 87.3391 95.6666 82.9303 95.6666 78.3332V17.6666C95.6666 13.0695 93.8404 8.6607 90.5898 5.41007C87.3391 2.15944 82.9303 0.333252 78.3332 0.333252H17.6666ZM78.3332 8.99992H17.6666C15.368 8.99992 13.1636 9.91301 11.5383 11.5383C9.91301 13.1636 8.99992 15.368 8.99992 17.6666V78.3332C8.99992 80.6318 9.91301 82.8362 11.5383 84.4615C13.1636 86.0868 15.368 86.9999 17.6666 86.9999H78.3332C80.6318 86.9999 82.8362 86.0868 84.4615 84.4615C86.0868 82.8362 86.9999 80.6318 86.9999 78.3332V17.6666C86.9999 15.368 86.0868 13.1636 84.4615 11.5383C82.8362 9.91301 80.6318 8.99992 78.3332 8.99992Z" fill="#d0c5b6"/>
<title id="icontitle">Instagram</title>
<desc id="icondesc">
Instagram icon in bold lines and transparent background.</desc>
</svg>
