<svg width="100" height="55" viewBox="0 0 100 55" fill="none" xmlns="http://www.w3.org/2000/svg">
<path fill-rule="evenodd" clip-rule="evenodd" d="M0 2.77778C0 2.04107 0.292658 1.33453 0.813593 0.813593C1.33453 0.292659 2.04107 0 2.77778 0H97.2222C97.9589 0 98.6655 0.292659 99.1864 0.813593C99.7073 1.33453 100 2.04107 100 2.77778C100 3.51449 99.7073 4.22103 99.1864 4.74196C98.6655 5.2629 97.9589 5.55556 97.2222 5.55556H2.77778C2.04107 5.55556 1.33453 5.2629 0.813593 4.74196C0.292658 4.22103 0 3.51449 0 2.77778ZM0 26.8889C0 26.1522 0.292658 25.4456 0.813593 24.9247C1.33453 24.4038 2.04107 24.1111 2.77778 24.1111H97.2222C97.9589 24.1111 98.6655 24.4038 99.1864 24.9247C99.7073 25.4456 100 26.1522 100 26.8889C100 27.6256 99.7073 28.3321 99.1864 28.8531C98.6655 29.374 97.9589 29.6667 97.2222 29.6667H2.77778C2.04107 29.6667 1.33453 29.374 0.813593 28.8531C0.292658 28.3321 0 27.6256 0 26.8889ZM0 52C0 51.2633 0.292658 50.5567 0.813593 50.0358C1.33453 49.5149 2.04107 49.2222 2.77778 49.2222H97.2222C97.9589 49.2222 98.6655 49.5149 99.1864 50.0358C99.7073 50.5567 100 51.2633 100 52C100 52.7367 99.7073 53.4433 99.1864 53.9642C98.6655 54.4851 97.9589 54.7778 97.2222 54.7778H2.77778C2.04107 54.7778 1.33453 54.4851 0.813593 53.9642C0.292658 53.4433 0 52.7367 0 52Z" fill="black"/>
</svg>
