<svg role="img" aria-labelledby="icontitle icondesc" width="96" height="96" viewBox="0 0 96 96" fill="none" xmlns="http://www.w3.org/2000/svg">
<path fill-rule="evenodd" clip-rule="evenodd" d="M5.07682 5.07682C8.32745 1.82619 12.7362 0 17.3333 0H78C82.5971 0 87.0059 1.82619 90.2565 5.07682C93.5071 8.32745 95.3333 12.7362 95.3333 17.3333V78C95.3333 82.5971 93.5071 87.0059 90.2565 90.2565C87.0059 93.5071 82.5971 95.3333 78 95.3333H17.3333C12.7362 95.3333 8.32745 93.5071 5.07682 90.2565C1.82619 87.0059 0 82.5971 0 78V17.3333C0 12.7362 1.82619 8.32745 5.07682 5.07682ZM17.3333 8.66667H78C80.2985 8.66667 82.5029 9.57976 84.1283 11.2051C85.7536 12.8304 86.6667 15.0348 86.6667 17.3333V78C86.6667 80.2985 85.7536 82.5029 84.1283 84.1283C82.5029 85.7536 80.2985 86.6667 78 86.6667H17.3333C15.0348 86.6667 12.8304 85.7536 11.2051 84.1283C9.57976 82.5029 8.66667 80.2985 8.66667 78V17.3333C8.66667 15.0348 9.57976 12.8304 11.2051 11.2051C12.8304 9.57976 15.0348 8.66667 17.3333 8.66667ZM73.6668 17.3335C72.5176 17.3335 71.4154 17.79 70.6027 18.6027C69.79 19.4154 69.3335 20.5176 69.3335 21.6668C69.3335 22.8161 69.79 23.9183 70.6027 24.731C71.4154 25.5436 72.5176 26.0002 73.6668 26.0002C74.8161 26.0002 75.9183 25.5436 76.731 24.731C77.5436 23.9183 78.0002 22.8161 78.0002 21.6668C78.0002 20.5176 77.5436 19.4154 76.731 18.6027C75.9183 17.79 74.8161 17.3335 73.6668 17.3335ZM47.6667 26C41.9203 26 36.4093 28.2827 32.346 32.346C28.2827 36.4093 26 41.9203 26 47.6667C26 53.413 28.2827 58.924 32.346 62.9873C36.4093 67.0506 41.9203 69.3333 47.6667 69.3333C53.413 69.3333 58.924 67.0506 62.9873 62.9873C67.0506 58.924 69.3333 53.413 69.3333 47.6667C69.3333 41.9203 67.0506 36.4093 62.9873 32.346C58.924 28.2827 53.413 26 47.6667 26ZM34.6667 47.6667C34.6667 51.1145 36.0363 54.4211 38.4743 56.8591C40.9123 59.297 44.2189 60.6667 47.6667 60.6667C51.1145 60.6667 54.4211 59.297 56.8591 56.8591C59.297 54.4211 60.6667 51.1145 60.6667 47.6667C60.6667 44.2189 59.297 40.9123 56.8591 38.4743C54.4211 36.0363 51.1145 34.6667 47.6667 34.6667C44.2189 34.6667 40.9123 36.0363 38.4743 38.4743C36.0363 40.9123 34.6667 44.2189 34.6667 47.6667Z" fill="#E5E5E5"/>
<title id="icontitle">Instagram</title>
<desc id="icondesc">
Instagram icon in bold lines and transparent background. 
</desc>
</svg>
